<?xml version="1.0" encoding="utf-8"?>
<!-- Generator: Adobe Illustrator 16.0.4, SVG Export Plug-In . SVG Version: 6.00 Build 0)  -->
<!DOCTYPE svg PUBLIC "-//W3C//DTD SVG 1.1//EN" "http://www.w3.org/Graphics/SVG/1.1/DTD/svg11.dtd">
<svg version="1.1" id="Layer_1" xmlns="http://www.w3.org/2000/svg" xmlns:xlink="http://www.w3.org/1999/xlink" x="0px" y="0px"
	 width="524.9px" height="68.8px" viewBox="0 0 524.9 68.8" enable-background="new 0 0 524.9 68.8" xml:space="preserve">
<g>
	<path fill="#FFFFFF" d="M521.6,34.1c0,16.101-13.1,29.2-29.199,29.2c-16.101,0-29.101-13.1-29.101-29.2C463.3,18,476.4,5,492.4,5
		C508.5,5,521.6,18,521.6,34.1 M522.4,21.5c-1.601-3.9-4-7.3-7-10.3s-6.5-5.3-10.301-7c-4-1.7-8.3-2.6-12.6-2.6
		c-4.4,0-8.6,0.9-12.6,2.6c-3.9,1.6-7.301,4-10.301,7s-5.3,6.5-7,10.3c-1.699,4-2.6,8.3-2.6,12.6c0,4.399,0.9,8.601,2.6,12.7
		c1.601,3.9,4,7.3,7,10.3s6.5,5.3,10.301,7c4,1.7,8.3,2.5,12.6,2.5c4.4,0,8.6-0.899,12.6-2.5c3.9-1.601,7.301-4,10.301-7
		s5.3-6.5,7-10.3c1.699-4,2.6-8.301,2.6-12.7C524.9,29.7,524.1,25.5,522.4,21.5"/>
	<path fill="#FFFFFF" d="M483.1,41.201V26.7l7,7.3L483.1,41.201z M479.8,18.7v30.9l22-22.9V45c0,0.9,0.8,1.701,1.7,1.701
		s1.7-0.801,1.7-1.701V18.6l-12.7,12.9L479.8,18.7z"/>
	<path fill="#FFFFFF" d="M524.1,64.5c-0.1,0.301-0.3,0.601-0.5,0.801c-0.199,0.199-0.5,0.4-0.8,0.5S522.2,66,521.9,66
		c-0.301,0-0.7-0.1-0.9-0.199c-0.3-0.1-0.6-0.301-0.8-0.5c-0.2-0.2-0.4-0.5-0.5-0.801c-0.101-0.299-0.2-0.6-0.2-0.899
		s0.1-0.7,0.2-0.899c0.1-0.301,0.3-0.601,0.5-0.801c0.2-0.199,0.5-0.4,0.8-0.5s0.6-0.199,0.9-0.199c0.3,0,0.699,0.1,0.899,0.199
		c0.3,0.1,0.601,0.301,0.8,0.5c0.2,0.2,0.4,0.5,0.5,0.801c0.101,0.299,0.2,0.6,0.2,0.899S524.2,64.201,524.1,64.5 M524.4,62.5
		c-0.101-0.299-0.301-0.6-0.601-0.899S523.3,61.201,522.9,61c-0.4-0.199-0.7-0.199-1.101-0.199c-0.399,0-0.7,0.1-1.1,0.199
		c-0.4,0.101-0.601,0.301-0.9,0.601c-0.2,0.2-0.399,0.5-0.6,0.899C519.1,62.8,519,63.201,519,63.6s0.1,0.7,0.2,1.101
		c0.1,0.299,0.3,0.6,0.6,0.899c0.2,0.2,0.5,0.399,0.9,0.601c0.399,0.199,0.7,0.199,1.1,0.199c0.4,0,0.7-0.1,1.101-0.199
		C523.3,66.1,523.5,65.9,523.8,65.6s0.4-0.5,0.601-0.899C524.5,64.4,524.6,64,524.6,63.6S524.5,62.8,524.4,62.5"/>
	<path fill="#FFFFFF" d="M521.2,62.5h0.899c0.101,0,0.2,0,0.2,0c0.101,0,0.101,0.101,0.2,0.101s0.1,0.101,0.1,0.2s0,0.1,0,0.199
		c0,0.101,0,0.201,0,0.201c0,0.1-0.1,0.1-0.1,0.199c-0.1,0.1-0.1,0.1-0.2,0.1c-0.1,0-0.1,0-0.2,0H521.2V62.5z M522.8,63.701
		C522.9,63.6,522.9,63.5,523,63.4c0-0.1,0.1-0.199,0.1-0.3s0-0.2-0.1-0.3c0-0.1-0.1-0.2-0.2-0.301c-0.1-0.1-0.2-0.1-0.3-0.199
		c-0.1,0-0.2-0.1-0.3-0.1H521v2.6c0,0.1,0.1,0.199,0.2,0.199c0.1,0,0.2-0.1,0.2-0.199V64h0.8l0.6,0.801l0.101,0.1
		c0.1,0,0.199-0.1,0.199-0.199V64.6l-0.5-0.7c0.101,0,0.101,0,0.2-0.1C522.6,63.8,522.7,63.701,522.8,63.701"/>
	<path fill="#FFFFFF" d="M59.2,45.4c-1.5,3.5-3.6,6.6-6.2,9.2s-5.7,4.7-9.2,6.2s-7.3,2.3-11.3,2.3s-7.8-0.8-11.3-2.3
		s-6.6-3.6-9.2-6.2s-4.7-5.7-6.2-9.2s-2.3-7.3-2.3-11.3s0.8-7.8,2.3-11.3s3.6-6.6,6.2-9.2s5.7-4.7,9.2-6.2s7.3-2.3,11.3-2.3
		s7.8,0.8,11.3,2.3s6.6,3.6,9.2,6.2s4.7,5.7,6.2,9.2s2.3,7.3,2.3,11.3S60.7,41.8,59.2,45.4 M62.4,21.4c-1.7-3.9-4-7.4-7-10.3
		c-2.9-2.9-6.4-5.3-10.3-7C41.2,2.4,37,1.6,32.5,1.6s-8.7,0.8-12.6,2.5c-3.9,1.7-7.4,4-10.3,7c-2.9,2.9-5.3,6.4-7,10.3
		C0.8,25.3,0,29.6,0,34.1s0.8,8.7,2.5,12.601C4.2,50.6,6.5,54.1,9.5,57c2.9,2.9,6.4,5.301,10.3,7c3.9,1.701,8.2,2.5,12.6,2.5
		c4.5,0,8.7-0.799,12.6-2.5c3.9-1.699,7.4-4,10.3-7c2.9-2.899,5.3-6.399,7-10.299C64,42.8,64.8,38.5,64.8,34.1
		C65,29.6,64.1,25.3,62.4,21.4"/>
	<path fill="#FFFFFF" d="M221.7,60.1v-52l24.9,26L221.7,60.1z M249.1,31.5L218.2,0.1V3v62.201V68.9l58.3-60.7V63.5
		c0,1,0.8,1.701,1.8,1.701S280,64.4,280,63.5V3V0L249.1,31.5z"/>
	<path fill="#FFFFFF" d="M159.4,42c-1.3-2-3-3.699-5.2-5.1c-2.2-1.4-4.7-2.6-7.7-3.5c-2.9-0.9-6-1.6-9.4-2.1
		c-2.5-0.3-4.9-0.9-7.2-1.6c-2.3-0.7-4.3-1.6-6-2.6c-1.7-1-3.1-2.3-4.1-3.8s-1.5-3.2-1.5-5.1c0-2,0.5-3.8,1.5-5.4c1-1.6,2.3-3,4-4.2
		c1.7-1.1,3.7-2,6-2.6c2.3-0.6,4.7-0.9,7.4-0.9c2.6,0,5.1,0.4,7.4,1c2.3,0.7,4.3,1.6,6,2.8c1.7,1.2,3,2.6,4,4.2
		c0.7,1.1,1.1,2.2,1.3,3.4c0,1,0.8,1.8,1.8,1.8s1.8-0.8,1.8-1.8l0,0c-0.2-1.6-0.8-3.2-1.6-4.8c-1.2-2-2.8-3.8-4.8-5.3
		s-4.4-2.7-7.1-3.5c-2.7-0.9-5.6-1.3-8.7-1.3c-3.1,0-6,0.4-8.7,1.2c-2.7,0.8-5.1,1.9-7.1,3.4s-3.6,3.2-4.8,5.3
		c-1.2,2-1.8,4.3-1.8,6.8s0.6,4.7,1.8,6.6c1.2,1.9,2.8,3.5,4.8,4.8c2,1.3,4.4,2.4,7.1,3.3c2.7,0.8,5.6,1.5,8.7,2
		c2.9,0.5,5.5,1.101,8,1.801c2.5,0.699,4.7,1.699,6.5,2.8c1.9,1.101,3.3,2.5,4.4,4c1.1,1.601,1.6,3.399,1.6,5.5s-0.5,4-1.6,5.8
		c-1.1,1.7-2.6,3.2-4.4,4.5c-1.9,1.2-4,2.2-6.5,2.801c-2.5,0.699-5.1,1-8,1c-2.9,0-5.5-0.4-8-1.101s-4.7-1.7-6.5-3
		c-1.8-1.3-3.3-2.8-4.4-4.5c-0.8-1.2-1.2-2.399-1.5-3.7c0-1-0.8-1.8-1.8-1.8s-1.8,0.8-1.8,1.8l0,0c0.2,1.801,0.8,3.5,1.8,5.1
		c1.3,2.101,3,4,5.2,5.601c2.2,1.601,4.7,2.8,7.7,3.8c2.9,0.9,6,1.4,9.4,1.4s6.4-0.4,9.4-1.301c2.9-0.799,5.5-2,7.7-3.5
		s3.9-3.399,5.2-5.6c1.3-2.199,1.9-4.6,1.9-7.199C161.6,46.6,160.7,44,159.4,42"/>
	<path fill="#FFFFFF" d="M383.899,55.9c-0.699-0.699-1.799-0.699-2.399,0c-2.3,2.1-4.899,3.7-7.899,4.9
		c-3.5,1.5-7.201,2.199-11.201,2.199s-7.799-0.799-11.299-2.299S344.5,57.1,341.899,54.5c-2.6-2.6-4.699-5.699-6.199-9.199
		S333.399,38,333.399,34c0-4,0.801-7.8,2.301-11.3s3.6-6.6,6.199-9.2c2.601-2.6,5.701-4.7,9.201-6.2S358.399,5,362.399,5
		s7.801,0.7,11.201,2.2c2.899,1.2,5.5,2.9,7.899,4.9c0.7,0.7,1.8,0.7,2.399,0c0.701-0.7,0.701-1.8,0-2.4c-2.699-2.4-5.699-4.2-9-5.7
		c-3.899-1.7-8.1-2.5-12.6-2.5s-8.699,0.8-12.6,2.5s-7.4,4-10.301,7c-2.899,2.9-5.299,6.4-7,10.3c-1.699,3.9-2.5,8.2-2.5,12.6
		c0,4.5,0.801,8.7,2.5,12.6c1.701,3.9,4,7.4,7,10.301c2.9,2.9,6.4,5.3,10.301,7c3.9,1.699,8.1,2.5,12.6,2.5s8.7-0.801,12.6-2.5
		c3.301-1.4,6.301-3.301,9-5.7C384.601,57.701,384.601,56.6,383.899,55.9"/>
</g>
</svg>
